<?xml version="1.0" encoding="utf-8"?>
<!-- Generator: Adobe Illustrator 23.0.1, SVG Export Plug-In . SVG Version: 6.00 Build 0)  -->
<svg version="1.1" id="Layer_1" xmlns="http://www.w3.org/2000/svg" xmlns:xlink="http://www.w3.org/1999/xlink" x="0px" y="0px"
	 viewBox="0 0 2250.2 423.7" style="enable-background:new 0 0 2250.2 423.7;" xml:space="preserve">
<style type="text/css">
	.st0{fill:#804D00;}
</style>
<g transform="translate(0.000000,1280.000000) scale(0.100000,-0.100000)">
	<path class="st0" d="M22493,12799.3c-4-5-74-95-154-200c-143-187-151-195-324-340c-511-427-1244-742-2243-962
		c-920-204-2056-322-3132-326c-203,0-368-2-368-3s61-38,135-83l136-82l179,2l180,1v-66v-65h-40h-40v50v50h-110h-110v-105v-105h-37
		c-31,0-61-16-160-83c-67-45-122-84-123-87c0-3,136-3,302-2c581,7,1392-46,2053-133c1242-164,2206-448,2884-849
		c176-104,243-151,394-275c100-82,194-162,209-178c14-15,90-111,167-212l141-183v83v84l-100,140c-98,137-100,141-100,195l1,55l39-45
		l40-45v44c0,39-7,53-62,122c-35,43-66,78-70,79c-5,0-8-43-8-95v-95l-145,127l-145,128v58v58l28-20c16-11,35-27,42-36
		c21-25,30-17,30,28c0,42-2,45-85,110c-47,37-87,67-90,67s-5-45-5-100c0-93-1-100-17-90c-10,6-83,53-163,103l-145,93l-3,62l-3,62
		l49-30c27-16,52-30,56-30c3,0,6,19,6,42v43l-93,52l-92,52l-3-100c-1-55-6-99-11-97c-4,2-85,39-179,83l-172,79v58c0,32,2,58,4,58
		s25-9,51-20s51-20,56-20c6,0,9,19,7,42l-3,43l-95,42c-52,23-98,42-102,42c-5,1-8-44-8-99s-3-100-7-100c-5,1-87,29-183,64l-175,64
		l-3,61l-3,60l57-19c31-11,59-20,61-20c1,0,3,20,3,44c0,38-3,45-27,54c-44,17-174,62-179,62c-2,0-4-48-4-106c0-97-2-106-17-99
		c-18,7-354,105-360,105c-1,0-3,27-3,60v60l28-6c15-4,37-11,50-15c38-14,42-11,42,36c0,44,0,44-42,55c-24,6-66,18-95,26
		c-28,7-56,14-62,14c-7,0-11-34-11-101c0-100,0-101-22-97c-13,3-101,22-195,44l-173,39v59v59l33-6c17-3,47-9,65-13l32-7v42
		c0,34-4,43-22,51c-21,8-169,40-189,40c-5,0-9-45-9-100c0-89-2-100-17-100c-10,1-97,15-193,33l-175,32l-3,62l-3,61l38-9
		c21-5,50-9,64-9c25,0,26,3,25,42l-1,43l-95,17c-52,9-101,17-107,17c-10,1-13-26-13-104c0-104,0-105-22-100c-13,2-90,14-173,25
		c-227,31-205,21-205,91c0,56,1,59,23,55c12-3,41-7,65-10l42-6v44c0,40-3,45-27,50c-25,6-166,25-185,26c-5,0-8-48-8-106v-107l-27,6
		c-16,3-106,13-200,23l-173,18v60v59l65-6l65-6v43v44l58,6c31,4,69,9,85,12l27,6v109c0,60,3,109,8,109c4,0,93,11,197,25
		c105,14,191,25,193,25c1,0,2-29,2-64v-64l-37-6c-98-17-93-13-93-62v-45l33,5c17,3,67,11,109,17l77,12l3,111l3,110l140,23
		c77,13,164,27,193,32l53,8l-3-66l-3-66l-60-10l-60-11v-44c0-25,5-44,10-44c6,1,54,9,107,19l97,17l3,111l3,110l180,38
		c99,21,186,38,193,39c8,0,12-19,12-64v-65l-60-12l-60-12v-43c0-52-3-51,119-23l90,21l3,111c3,108,4,111,28,118c64,19,338,89,348,89
		c8,0,12-22,12-64c0-61-1-64-27-70c-108-27-103-23-103-71s2-50,46-36c16,5,61,19,101,30l72,21l3,111l3,112l180,58
		c99,32,183,59,188,59c4,0,7-29,7-65s-4-65-10-65c-5,0-34-9-65-21c-54-20-55-21-55-59c0-21,3-41,8-43c4-2,51,12,105,31l97,35v111
		v112l103,41c56,23,139,57,185,77l82,35v-65v-66l-60-26c-60-27-60-27-60-69c0-24,4-43,9-43c4,0,50,19,101,43l92,42v108
		c-1,100,1,108,21,121c12,8,91,52,175,99l152,86v-67v-67l-53-30c-48-29-52-34-55-73c-2-23,0-42,4-42s47,23,96,52l88,52v111v111
		l152,114c83,63,155,116,160,118c4,2,8-25,8-60l-1-63l-49-39c-46-36-50-43-50-83c0-23,2-43,5-43s41,32,85,71l80,70v114
		c0,112,0,114,28,134c15,11,72,74,127,140s103,120,108,120c4,1,7-25,7-58c0-53-4-63-40-109c-34-43-40-57-40-98v-48l65,88l65,88v110
		c0,106,1,113,30,160c27,43,30,57,30,130C22502,12774.3,22498,12805.3,22493,12799.3z M18325,10770.3c-27-3-55-7-63-8
		c-10-1-16-16-18-40l-3-38l-85,7l-84,7v-104v-104l-187,14c-104,7-194,15-200,17c-9,2-13,23-13,58v54h105c58,1,125,4,150,8l45,6v109
		v108l33,5c17,3,88,10,157,16s144,13,168,16l42,5v-65v-65L18325,10770.3z M17732,10729.3l-150,7v-104v-103l-87,4c-49,2-137,7-198,11
		l-110,6l-3,57l-3,58h40c37,0,40-2,43-32l3-32l90,2c134,4,125-4,125,121v107l168,12c92,7,182,12,200,12h32v-66v-67L17732,10729.3z
		 M17352,10695.3c-38,0-40,2-40,30c0,29-1,30-49,30c-26,0-76,3-110,6l-61,7v-107v-106h-57c-32,0-122,3-200,7l-143,6v59v58l63-1
		c34-1,52-4,40-6c-20-4-23-11-23-49v-45l108,3l107,3l3,112l3,113h72c40,0,129,3,200,7l127,6v-66v-67H17352z"/>
	<path class="st0" d="M16463,10762.3l-6,42l-303,191l-302,190h-631h-632l7-46c3-26,6-72,6-103v-57l260-63c143-34,276-67,295-72
		l35-10v-137v-138l-277-63c-153-35-288-68-300-72c-22-8-23-14-23-104v-95h631h631l309,191l309,191l-2,56
		C16470,10695.3,16466,10739.3,16463,10762.3z M15672,10565.3h-341l3,132l3,133l325,3c179,1,330,0,337-3c10-3,13-39,13-135v-130
		H15672z"/>
	<path class="st0" d="M15126,10805.3c-3,0-208,48-457,106l-452,105l-51-56c-121-134-148-225-99-329c25-54,138-216,151-216
		c3,0,206,38,450,85c245,47,450,85,455,85s9,49,9,110C15132,10755.3,15130,10805.3,15126,10805.3z"/>
	<path class="st0" d="M14089,10517.3c-47,70-55,78-84,78h-33v105v105h-110h-110v-45v-44l63-3l62-3v-55v-55l-197-3l-197-2l-3,102
		l-3,103l-112,3l-113,3v-45v-45l68-3l67-3v-55v-55l-197-3l-197-2l-3,102l-3,103l-112,3l-113,3v-46v-45h65h65v-60v-60h-200h-200v105
		v105h-110h-110v-45v-45h65h65v-60v-60h-200h-200v105v105h-110h-110v-45v-45h65h65v-60v-60h-200h-200v105v105h-110h-110v-45v-45h65
		h65v-60v-60h-200h-200v105v105h-110h-110v-45v-45h65h65v-60v-60h-200h-200v105v105h-110h-110v-45v-45h65h65v-60v-60h-200h-161.1
		c-3.1,0.4-6.5,0.5-10.1,0.5h-28.7v104.5v105h-4.3v0.5h-110h-110v-45v-44l4.3-0.2v-1.3h27.3l31.5-1.5l62-3v-55v-55l-197-3l-197-2
		l-3,102l-3,103l-112,3l-113,3v-45v-45l68-3l67-3v-55v-55l-197-3l-197-2l-3,102l-3,103l-112,3l-113,3v-46v-45h65h65v-60v-60h-200
		h-200v105v105h-110h-110v-45v-45h65h65v-60v-60h-200h-200v105v105h-110h-110v-45v-45h65h65v-60v-60h-200h-200v105v105h-110h-110
		v-45v-45h65h65v-60v-60h-200h-200v105v105h-110h-110v-45v-45h65h65v-60v-60h-200h-200v105v105h-110h-110v-45v-45h65h65v-60v-60
		h-200h-200v105v105h-110h-110v-45v-45h65h65v-60v-60h-125h-125v-80v-80h2220c688.5,0,1306.4,0.3,1714.3,0.8v-1.3h2220
		c1221,0,2220,1,2219,2C14141,10439.3,14117,10475.3,14089,10517.3z"/>
	<path class="st0" d="M11891,10995.3h-1743.5l0.3,0.5h-2191h-2191l8-188c3-103,9-190,11-195c2-4,51-7,109-7h104v45v45h-59
		c-44,0-60,4-65,16c-8,20-8,72,0,102l6,22l197-2l196-3l3-113l3-113l107,3l107,3l3,42l3,43h-65h-66v70v70l197-2l198-3l3-113l3-113
		l107,3l107,3l3,42l3,43h-65h-66v70v70l197-2l198-3l3-113l3-113l107,3l107,3l3,42l3,43h-65h-66v70v70h200h199l3-113l3-112l108-3
		l107-3v46v45h-65h-65v70v70h200h199l3-113l3-112l108-3l107-3v46v45h-65h-65v70v70h200h199l3-113l3-112l108-3l107-3v45v45l-62,3
		l-63,3l-3,67l-3,68h200h200l3-113l3-112l108-3l107-3v45v45l-62,3l-63,3v65v65l197,3l197,2l3-112l3-113l10.6-0.3
		c13.3-3.1,55.7-5.2,104.6-5.2h81.9l17.8-0.5v0.5h4.3v45v45h-14.6l-51.7,2.5l-43.6,2.1c-7.7,2.5-11.9,6.2-14.1,11.4
		c-2.6,6.5-4.3,16.4-5.3,27.9v26.6v13c0.9,12.6,2.6,24.7,5.3,34.5l4.8,17.7l122.9,2.8l8,0.2l67.2-0.7l196-3l3-113l3-113l107,3l107,3
		l3,42l3,43h-65h-66v70v70l197-2l198-3l3-113l3-113l107,3l107,3l3,42l3,43h-65h-66v70v70l197-2l198-3l3-113l3-113l107,3l107,3l3,42
		l3,43h-65h-66v70v70h200h199l3-113l3-112l108-3l107-3v46v45h-65h-65v70v70h200h199l3-113l3-112l108-3l107-3v46v45h-65h-65v70v70
		h200h199l3-113l3-112l108-3l107-3v45v45l-62,3l-63,3l-3,67l-3,68h200h200l3-113l3-112l108-3l107-3v45v45l-62,3l-63,3v65v65l197,3
		l197,2l3-112l3-113l108-3l107-3v45v45l-62,3l-63,3v65v65l133,3l132,3l40,79l40,80H11891z"/>
</g>
</svg>
