<?xml version="1.0" encoding="utf-8"?>
<!-- Generator: Adobe Illustrator 23.0.1, SVG Export Plug-In . SVG Version: 6.00 Build 0)  -->
<svg version="1.2" baseProfile="tiny" id="Layer_1" xmlns="http://www.w3.org/2000/svg" xmlns:xlink="http://www.w3.org/1999/xlink"
	 x="0px" y="0px" viewBox="0 0 1090 1090" xml:space="preserve">
<g>
	<path d="M1,544c0.23-2.13,0.64-4.26,0.66-6.4c0.56-58.95,10.93-116.18,30.39-171.77c19.07-54.51,46.32-104.64,81.42-150.5
		c35.85-46.85,78.2-86.88,126.96-120.02c49.57-33.69,103.28-58.55,161.11-74.43c27.81-7.64,56.01-13.33,84.73-16.02
		c16.56-1.55,33.21-2.11,49.82-3.15c2.64-0.16,5.28-0.47,7.91-0.7c1.33,0,2.67,0,4,0c2.14,0.23,4.28,0.63,6.42,0.66
		c59.12,0.58,116.51,10.99,172.24,30.57c59.01,20.73,112.79,50.9,161.42,90.22c43.87,35.47,81.37,76.77,112.5,123.83
		c28.01,42.34,49.68,87.73,64.92,136.14c9.87,31.33,17.34,63.24,20.63,95.96c2.02,20.02,2.84,40.16,4.23,60.24
		c0.12,1.81,0.43,3.6,0.65,5.4c0,1.33,0,2.67,0,4c-0.23,2.3-0.64,4.6-0.67,6.9c-0.81,67.34-14.03,132.2-39.21,194.61
		c-28.58,70.81-70.39,132.8-124.96,186.18c-42.16,41.24-89.84,74.71-142.84,100.5c-38.76,18.87-79.27,32.87-121.43,41.96
		c-26.39,5.69-53.03,9.67-80.02,11.08c-9.31,0.49-18.63,0.71-27.95,1.11c-1.98,0.09-3.94,0.43-5.91,0.66c-1.33,0-2.67,0-4,0
		c-2.3-0.23-4.61-0.65-6.91-0.67c-67.69-0.81-132.86-14.16-195.54-39.59c-70.44-28.58-132.12-70.26-185.25-124.59
		c-41.24-42.17-74.7-89.84-100.5-142.85c-18.86-38.77-32.87-79.27-41.95-121.43c-5.69-26.39-9.67-53.03-11.08-80.02
		c-0.49-9.31-0.71-18.63-1.11-27.95c-0.09-1.97-0.43-3.93-0.65-5.9C1,546.67,1,545.33,1,544z M1074.83,546.39
		c-0.01-291.86-236.17-528.93-528.44-529.17C254.59,16.98,17.47,253.29,17.22,545.6c-0.24,291.78,236.03,528.93,528.38,529.17
		C837.41,1075.02,1074.33,838.73,1074.83,546.39z"/>
	<path d="M546,98.47c247.64,0.03,447.72,201.27,447.53,447.77C993.34,793.65,792.34,993.58,546,993.53
		C298.39,993.48,98.28,792.27,98.47,545.75C98.66,298.47,299.53,98.42,546,98.47z M744.98,556.56c-0.75-0.6-1.1-0.97-1.52-1.21
		c-14.05-8.05-16.58-19.18-7.34-32.39c10.12-14.48,20.24-28.95,30.37-43.42c6.88-9.83,13.79-19.63,20.62-29.5
		c2.7-3.91,6.28-6.6,10.93-4.98c2.87,1,5.7,3.45,7.51,5.99c14.97,21.04,29.71,42.26,44.51,63.43c2.86,4.09,5.9,8.09,8.44,12.38
		c5.76,9.72,2.43,21.65-7.34,27.21c-1.26,0.72-2.54,1.43-4.13,2.32c2.08,2.47,3.88,4.63,5.72,6.77c5.87,6.82,11.91,13.5,17.61,20.46
		c6,7.33,6.59,16.4,1.25,23.56c-2.5,3.36-6.18,5.84-9.68,9.04c0.75,0.94,1.84,2.36,3,3.73c8.19,9.66,16.56,19.17,24.56,28.99
		c8.23,10.12,5.69,23.36-5.42,30.05c-0.94,0.57-1.84,1.2-3.27,2.14c23.66,18.02,38.33,41.28,44.5,70.34
		c84.36-149.69,75.46-374.62-88.83-524.74c-163.67-149.55-414.7-151.1-580.32-0.46c-84.2,76.58-130.94,172.55-140.56,286.12
		c-4.82,56.93,2.13,112.6,20.25,166.93c4.69-7.57,8.77-15.18,12.81-22.81c19.17-36.21,38.32-72.44,57.51-108.65
		c22.15-41.8,44.33-83.59,66.48-125.39c10.92-20.61,21.83-41.22,32.69-61.86c2.36-4.49,5.76-7.44,10.96-7.39
		c4.97,0.05,8.35,2.83,10.55,7.21c1.87,3.72,3.83,7.4,5.8,11.06c28.88,53.51,57.8,106.99,86.6,160.54c2.19,4.08,5.2,6.12,9.68,6.74
		c12.69,1.73,25.37,1.61,37.7-1.72c21.37-5.77,42.57-12.2,63.85-18.32c16.15-4.64,32.12-10.18,49.22-10.34
		c0.44,0,0.88-0.4,1.51-0.71c0-8.03,0-16.08,0-24.56c-6.54,0-12.68,0.03-18.83-0.01c-6.26-0.04-9.58-2.75-9.53-7.67
		c0.04-4.76,3.19-7.32,9.18-7.54c1.45-0.05,2.9-0.22,4.57-0.35c0-9.19,0-18.06,0-27.43c-2.36,0-4.34,0.11-6.3-0.02
		c-4.64-0.32-7.54-3.38-7.45-7.69c0.09-4.26,2.57-6.96,7.4-7c19.16-0.14,38.33-0.14,57.49,0.01c4.76,0.04,7.29,2.84,7.35,7.06
		c0.06,4.27-2.89,7.31-7.55,7.62c-2.07,0.14-4.16,0.02-6.22,0.02c0,9.39,0,17.85,0,26.32c1.54-1.48,2.45-3.05,3.3-4.65
		c7.88-14.87,15.79-29.72,23.61-44.62c2.12-4.04,4.58-7.32,9.71-7.4c5.42-0.08,7.82,3.44,10.03,7.63
		c25.42,47.99,50.91,95.95,76.4,143.91c0.67,1.26,1.55,2.42,2.74,4.26C739.93,562.35,742.38,559.54,744.98,556.56z M194.08,795.44
		c74.69,108.35,224.81,203.27,411.09,178.28c59.19-7.94,114.33-27.74,165.28-58.87c50.89-31.1,93.59-70.99,128.5-120.28
		c-46.69,0-92.26,0-137.95,0c-0.36,1.22-0.65,2.15-0.91,3.09c-3.8,13.27-14.56,21.55-28.43,21.55c-123.82,0.03-247.64,0.03-371.45,0
		c-13.1,0-23.27-7.38-27.75-19.77c-0.5-1.37-1.03-2.73-1.5-4C285.33,795.44,240.07,795.44,194.08,795.44z M695.85,761.2
		c0-2.33,0-4.3,0-6.26c0-40.66,0.13-81.32-0.12-121.98c-0.05-7.94-0.85-16.03-2.59-23.77c-7.31-32.55-26.58-56.25-55.65-71.92
		c-26.86-14.47-55.28-17.65-84.7-9.29c-24.66,7.01-49.1,14.79-73.82,21.58c-26.48,7.27-52.83,8.4-78.36-4.32
		c-7.87-3.92-14.95-8.78-20.48-15.63c-2.72-3.36-5.01-7.06-7.49-10.61c-4.39-6.31-9.98-8.58-16.29-6.6
		c-5.87,1.84-9.37,7.09-9.42,14.35c-0.06,6.99-0.02,13.98-0.02,20.96c0,46.15,0,92.3,0,138.45c0,1.83-0.06,3.68,0.11,5.49
		c0.64,6.75,5.66,11.67,12.4,12.26c8.36,0.73,14.81-5.22,15.18-14.24c0.23-5.66-0.01-11.33,0.21-16.99
		c0.98-25.26,22.43-46.72,47.6-46.94c35.16-0.31,70.32-0.21,105.48,0.01c8.4,0.05,16.46,2.02,24.02,6.36
		c22.58,12.95,33.59,37.51,27.57,62.99c-4.36,18.47-8.97,36.88-13.52,55.31c-0.86,3.48-1.96,6.89-3.08,10.79
		C607.59,761.2,651.48,761.2,695.85,761.2z M352.63,718.96c-0.75-0.55-1.11-0.95-1.55-1.12c-14.49-5.62-20.33-16.44-20.1-31.66
		c0.35-22.99,0.1-45.99,0.08-68.99c0-1.93-0.2-3.85-0.3-5.7c-1.09-0.17-1.59-0.34-2.06-0.29c-1.16,0.1-2.32,0.27-3.46,0.48
		c-42.72,7.61-74.75,30.39-95.77,68.26c-4.26,7.67-9.11,11.28-18.24,10.23c-18.27-2.1-35.89,0.92-52.34,9.46
		c-4.51,2.34-8.76,5.17-13.53,8.02c3.48,7.79,6.63,14.87,9.83,22.03c13.51,0,26.5-0.06,39.48,0.02c7.34,0.04,12.28,4.53,12.35,10.95
		c0.07,6.61-4.97,11.3-12.47,11.4c-7.66,0.1-15.33,0.01-23,0.05c-1.38,0.01-2.75,0.27-4.83,0.48c4.22,7.23,8.05,13.77,11.72,20.06
		c53.2,0,105.67,0,158.48,0c7.63-9.71,18.19-11.38,29.92-11.19c25.32,0.41,50.66,0.13,75.99,0.11c1.96,0,3.91-0.18,5.9-0.27
		c0.44-1.1,0.82-1.83,1.03-2.61c5.93-21.56,17.5-39.42,34.81-53.6c1.49-1.22,2.66-2.98,3.57-4.7c9.89-18.52,19.7-37.08,29.51-55.63
		c0.66-1.25,1.12-2.61,1.7-3.97c-0.8-0.24-1.12-0.42-1.43-0.42c-31.5-0.01-63-0.42-94.49,0.13c-19.99,0.35-34,15.55-34.37,35.62
		c-0.09,5,0.23,10.02-0.11,14.99c-0.78,11.56-6.28,20.14-16.82,25.28c-1.49,0.73-3.02,1.38-4.86,2.21c0,6.79,0.04,13.61-0.01,20.42
		c-0.05,5.73-2.59,8.75-7.24,8.79c-4.71,0.04-7.33-2.94-7.38-8.63C352.59,732.36,352.63,725.54,352.63,718.96z M821.22,556.68
		c-4.17,0-7.99,0.05-11.81-0.02c-3.99-0.07-8.03,0.09-11.96-0.49c-4.91-0.72-7.82-4.67-7.79-9.54c0.03-4.82,3.17-8.69,7.9-9.52
		c1.63-0.29,3.32-0.25,4.98-0.25c11-0.02,21.99,0,32.99-0.03c1.68,0,3.37-0.21,6.01-0.39c-15.48-22.13-30.29-43.3-45.5-65.04
		c-15.46,22.13-30.26,43.29-45.05,64.46c0.29,0.34,0.59,0.68,0.88,1.02c4.81,0,9.63-0.04,14.44,0.01c4.01,0.04,7.08,1.83,8.87,5.44
		c1.79,3.6,1.34,7.12-1,10.36c-0.78,1.08-1.67,2.07-2.55,3.08c-10.47,12.1-20.94,24.18-31.4,36.29c-0.89,1.03-1.62,2.21-2.98,4.09
		c2.87,0,4.68,0,6.49,0c16.99,0,33.99-0.01,50.98,0.02c1.99,0,4.03-0.01,5.97,0.36c4.92,0.94,8.37,5.26,8.17,9.93
		c-0.21,4.77-3.89,8.74-8.85,9.34c-1.97,0.24-3.99,0.15-5.99,0.15c-12.49,0.01-24.97,0.01-37.75,0.01
		c-12.69,14.91-25.34,29.77-38.52,45.26c52.64,0,104.08,0,156.32,0c-1.58-1.98-2.57-3.29-3.63-4.54
		c-11.98-14.09-23.93-28.21-35.97-42.24c-3.14-3.66-5.07-7.51-2.97-12.29c2.22-5.05,6.63-6.09,11.6-6
		c3.59,0.07,7.18,0.01,10.77,0.01c0.17-0.39,0.35-0.78,0.52-1.17C843.45,582.35,832.5,569.71,821.22,556.68z M545.71,804.31
		c60.32,0,120.63,0,180.95-0.01c2.16,0,4.34,0.06,6.49-0.15c6.82-0.68,11.81-5.54,12.62-12.13c0.82-6.69-3.18-12.89-9.91-14.91
		c-2.18-0.65-4.58-0.83-6.88-0.84c-25.49-0.06-50.98-0.04-76.48-0.04c-95.63,0-191.27,0-286.9,0c-1.67,0-3.33-0.05-5,0.02
		c-8.36,0.36-14.5,6.39-14.47,14.18c0.03,7.7,5.83,13.39,14.13,13.82c1.99,0.1,4,0.05,6,0.05
		C426.08,804.31,485.89,804.31,545.71,804.31z M312.6,525.94c-9.04,12.19-20.99,20.17-35.65,24c-14.96,3.9-29.29,1.43-43.31-4.92
		c-22.59,42.38-44.9,84.24-67.07,125.84c14.98-1.71,29.28-3.35,44.62-5.11c26.72-44.35,66.87-70.74,119.61-77.97
		c0-15.48,0-30.42,0-44.78C324.63,537.22,318.85,531.8,312.6,525.94z M244.34,524.84c9.77,4.67,18.83,5.34,28.19,2.87
		c9.6-2.53,16.86-8.24,22.73-16.15c9.38-12.66,25-13.04,34.95-1.09c0.91,1.09,1.9,2.12,3.1,3.46c4.11-7.87,9.75-13.22,17.8-15.86
		c7.96-2.61,15.57-1,24.12,2.51c-19.93-37.83-39.24-74.49-59.07-112.14C291.87,434.55,268.25,479.43,244.34,524.84z M610.8,511.32
		c32.71,7.97,58.73,24.84,77.84,51.17c7.98,0.56,15.22-1.64,20.42-6.25c-20.11-38.19-40.28-76.51-60.96-115.79
		C635.39,464.61,623.31,487.55,610.8,511.32z M561.41,704.04c-33.94-10.66-89.11,23.88-91.72,57.19c25.73,0,51.44,0,77.47,0
		C551.95,741.98,556.68,722.99,561.41,704.04z M767.13,736.81c0-18.68,0-36.84,0-55.34c-18.75,0-36.99,0-56.11,0
		c-0.5,18.48-1.26,36.78,0.52,55.34C730.16,736.81,748.42,736.81,767.13,736.81z M906.41,757.2c-65.32,0-130.03,0-195.13,0
		c0.09,1.55,0.16,2.74,0.25,4.38c7.18,0,13.98,0.07,20.78-0.02c8.76-0.11,15.76,3.51,21.57,9.81c1,1.09,1.98,2.2,2.7,3.01
		c50.48,0,100.52,0,151.06,0c0-2.36,0.13-4.33-0.03-6.28C907.34,764.65,906.87,761.2,906.41,757.2z M899.58,736.78
		c0-1.08,0.06-1.43-0.01-1.73c-0.12-0.48-0.29-0.96-0.5-1.4c-13.05-27.17-34.21-44.48-63.4-51.82c-3.22-0.81-6.83-0.11-10.47-0.11
		c0,18.55,0,36.69,0,55.07C850.28,736.78,874.83,736.78,899.58,736.78z M540.83,644.41c-4.93,6.24-21.86,39.26-21.62,42.49
		c15.03-4.69,30.39-5.04,45.74-3.1C568.02,666.11,552.58,646.5,540.83,644.41z M804.58,681.75c-5.8,0-11.34,0-17.03,0
		c0,18.5,0,36.69,0,54.94c5.86,0,11.27,0,17.03,0C804.58,718.27,804.58,700.21,804.58,681.75z M711.25,618.01
		c4.15,1.32,8.86,2.82,13.67,4.35c1.47-1.63,2.71-2.95,3.86-4.34c0.6-0.73,1.04-1.6,1.56-2.42c-14.72-8.14-17.38-21.14-7.46-34.5
		c-1.26-2.1-2.58-4.31-3.78-6.32c-6.63,2.63-12.72,5.05-18.15,7.2C704.37,593.92,707.68,605.52,711.25,618.01z M582.4,467.42
		c4.78,0,8.97,0,13.07,0c0-9.24,0-17.98,0-26.88c-4.5,0-8.69,0-13.07,0C582.4,449.67,582.4,458.41,582.4,467.42z M596.51,494.33
		c0.23,0.09,0.46,0.19,0.69,0.28c1.86-3.58,3.71-7.16,5.79-11.17c-2.75,0-4.5,0-6.48,0C596.51,487.26,596.51,490.8,596.51,494.33z"
		/>
	<path d="M212.64,933.46c6.17-16.76,12.22-33.22,18.53-50.35c3.22,2.6,5.76,4.65,8.55,6.9c-4.9,12.11-9.68,23.89-14.45,35.68
		c0.23,0.21,0.47,0.42,0.7,0.63c10.39-7.34,20.78-14.67,31.45-22.21c2.62,2.02,5.08,3.92,7.87,6.08
		c-4.93,12.17-9.78,24.14-14.62,36.1c0.17,0.18,0.33,0.36,0.5,0.53c10.49-7.41,20.97-14.83,31.74-22.44
		c2.64,2.05,5.09,3.95,8.37,6.49c-15.21,9.95-29.89,19.55-44.88,29.35c-2.68-2.1-5.26-4.12-8.23-6.44
		c4.55-11.39,9.02-22.6,13.5-33.81c-0.24-0.28-0.48-0.57-0.72-0.85c-9.97,6.88-19.93,13.77-30.11,20.79
		C217.97,937.67,215.41,935.64,212.64,933.46z"/>
	<path d="M370.75,1006.18c4.05-9.74,8.1-19.47,12.33-29.65c3.16,1.3,5.86,2.4,9.16,3.76c-6.49,15.79-12.83,31.24-19.34,47.1
		c-3.07-1.25-5.65-2.29-8.83-3.58c-3.44-12.99-6.96-26.24-10.79-40.71c-4.48,10.78-8.52,20.52-12.81,30.84
		c-3.11-1.25-5.91-2.38-9.27-3.73c6.51-15.84,12.8-31.15,19.27-46.9c3.2,1.21,5.94,2.24,8.91,3.36c3.5,13.24,6.97,26.33,10.44,39.43
		C370.12,1006.13,370.44,1006.16,370.75,1006.18z"/>
	<path d="M988.76,295.86c1.77,3.08,3.22,5.61,4.95,8.62c-14.63,8.65-28.89,17.07-43.58,25.75c-1.74-2.74-3.31-5.21-5.1-8.03
		c5.16-12.56,10.32-25.13,15.48-37.71c-0.16-0.25-0.33-0.51-0.49-0.76c-9.16,5.38-18.32,10.75-27.83,16.33
		c-1.75-2.9-3.26-5.41-5.16-8.55c14.68-8.68,29.03-17.17,43.75-25.87c1.76,2.88,3.29,5.39,4.99,8.17
		c-5.17,12.61-10.31,25.17-15.46,37.72c0.19,0.24,0.39,0.47,0.58,0.71C969.96,306.9,979.04,301.57,988.76,295.86z"/>
	<path d="M673.11,103.89c-4.32-0.96-7.51-1.67-11.06-2.47c-1.8-5.51-3.58-10.98-5.37-16.48c-4-0.97-7.68-1.86-11.92-2.88
		c-1.3,4.71-2.54,9.23-3.92,14.21c-3.17-0.76-6.02-1.43-9.73-2.32c3.91-16.44,7.75-32.63,11.78-49.56
		c10.16,2.76,20.35,3.51,29.35,8.46c5.72,3.15,8.51,8.31,7.94,14.95c-0.61,7.05-3.51,12.75-10.12,16.06c-1,0.5-2.06,0.89-3.47,1.49
		C668.69,91.3,670.71,97.04,673.11,103.89z M646.71,73.38c5.54,0.93,10.36,1.99,15.23,2.47c3.98,0.4,6.56-1.95,7.73-5.69
		c1.33-4.26,0.29-8.3-3.41-9.9c-4.76-2.06-9.91-3.22-15.37-4.91C649.39,61.81,648.14,67.21,646.71,73.38z"/>
	<path d="M657.11,1044.65c-4.63,0.82-7.87,1.4-11.38,2.02c-3.69-4.19-7.3-8.28-11.29-12.8c-3.85,0.68-7.86,1.39-12.25,2.17
		c0.75,5.03,1.43,9.54,2.17,14.49c-3.31,0.63-6.17,1.18-9.85,1.88c-3.05-16.78-6.03-33.16-9.16-50.35
		c9.25-1.47,17.85-3.32,26.55-4.07c7.29-0.63,13.38,2.28,16.57,9.49c3.41,7.71,2.13,15.12-3.62,21.14
		c-0.34,0.36-0.63,0.76-1.29,1.58c2.07,2.22,4.16,4.5,6.28,6.75C651.95,1039.22,654.1,1041.47,657.11,1044.65z M620.42,1026.96
		c3.62-0.66,6.55-1.15,9.46-1.75c1.46-0.3,2.91-0.68,4.31-1.18c4.9-1.78,6.71-4.96,5.81-10.07c-0.77-4.38-3.6-6.96-8.44-6.69
		c-4.74,0.26-9.43,1.24-14.46,1.95C618.25,1015.39,619.28,1020.89,620.42,1026.96z"/>
	<path d="M886.08,852.43c5.9-7.03,11.15-13.9,17.07-20.15c5.04-5.32,11.59-7.53,18.63-4.15c7.18,3.45,12,8.89,11.53,17.58
		c-0.04,0.8,0.06,1.61,0.12,2.92c6.15,0.67,12.19,1.32,19.31,2.09c-2.56,3.4-4.57,6.06-6.78,9c-5.68-0.77-11.24-1.52-17.21-2.32
		c-2.46,3.05-5.03,6.24-7.86,9.76c3.85,3.16,7.41,6.08,11.35,9.31c-2.1,2.65-4.01,5.07-6.33,8
		C912.59,873.77,899.58,863.3,886.08,852.43z M899.62,850.14c5.01,4.02,9.36,7.51,14.19,11.38c2.98-3.97,5.88-7.38,8.26-11.11
		c2.88-4.52,2.14-8.4-1.63-11.52c-3.65-3.02-8.32-2.78-12.04,1.04C905.41,842.99,902.8,846.41,899.62,850.14z"/>
	<path d="M934.34,226.92c0.06,13.72-11.26,25.14-25.03,25.24c-14.88,0.12-27.96-13.04-27.99-28.17
		c-0.03-13.59,11.49-25.15,25.14-25.21C921.51,198.71,934.27,211.59,934.34,226.92z M907.93,241.91c9.16-0.02,16.59-7.3,16.67-16.33
		c0.07-9.07-7.65-16.59-17-16.54c-9.14,0.05-16.46,7.49-16.31,16.57C891.44,234.78,898.75,241.93,907.93,241.91z"/>
	<path d="M114.16,276.73c7.23-10.79,13.96-20.83,20.86-31.13c2.67,1.79,4.84,3.24,7.42,4.98c-4.97,7.55-9.78,14.85-14.89,22.61
		c3.29,2.25,6.23,4.27,9.62,6.59c4.58-6.77,8.93-13.19,13.61-20.12c2.5,1.59,4.79,3.05,7.57,4.82c-4.53,6.81-8.83,13.28-13.52,20.34
		c3.27,2.2,6.36,4.27,9.93,6.67c5.3-7.87,10.37-15.39,15.64-23.21c2.64,1.74,4.81,3.17,7.5,4.93c-7.1,10.63-13.98,20.93-21.31,31.91
		C142.41,295.65,128.55,286.37,114.16,276.73z"/>
	<path d="M688.09,992.46c1.4,3.99,2.5,7.1,3.82,10.87c7.65-2.55,14.99-4.99,22.9-7.63c1.01,2.65,1.97,5.18,3.15,8.28
		c-7.75,2.74-15.05,5.33-22.91,8.12c1.19,3.63,2.3,7.01,3.67,11.21c8.83-2.96,17.39-5.82,26.49-8.87c1.03,2.73,1.93,5.13,3.14,8.33
		c-12.11,4.2-23.92,8.3-36.31,12.59c-5.56-16.08-10.98-31.73-16.67-48.18c11.82-4.1,23.34-8.1,35.3-12.25
		c1.04,2.83,1.93,5.25,3.08,8.38C705.03,986.43,696.67,989.4,688.09,992.46z"/>
	<path d="M596.77,46.74c-9.37-0.54-17.96-1.03-27.1-1.55c0,3.89,0,7.43,0,11.54c7.57,0.6,15.28,1.21,23.47,1.86
		c-0.18,3.05-0.34,5.61-0.53,8.76c-8.28-0.43-16-0.83-24.16-1.25c-0.33,4.01-0.63,7.56-0.96,11.64c9.32,0.71,18.22,1.39,27.42,2.09
		c0,2.86,0,5.42,0,8.85c-12.63-0.77-24.98-1.52-38.29-2.32c1.08-16.91,2.14-33.39,3.25-50.88c12.49,0.77,24.64,1.51,36.9,2.27
		C596.77,40.89,596.77,43.44,596.77,46.74z"/>
	<path d="M215.93,866.25c-2.36,2.12-4.3,3.86-6.69,6c-6.03-6.74-11.88-13.29-18.1-20.24c-2.83,2.48-5.53,4.85-8.82,7.73
		c5.35,6.07,10.56,11.98,16.11,18.29c-2.35,2.06-4.39,3.85-6.72,5.89c-5.53-6.14-10.73-11.93-16.22-18.02
		c-2.97,2.62-5.68,5-8.93,7.86c6.2,7.03,12.19,13.82,18.47,20.95c-2.17,2.03-4.07,3.8-6.57,6.13c-8.47-9.52-16.71-18.77-25.56-28.71
		c12.68-11.26,25.16-22.34,38.16-33.89C199.46,847.69,207.57,856.83,215.93,866.25z"/>
	<path d="M236.76,140.74c4.73,6.37,9.07,12.2,13.41,18.04c0.33-0.02,0.67-0.03,1-0.05c1.27-10.38,2.53-20.75,3.81-31.28
		c2.86-2.03,5.63-4,9.49-6.74c-0.93,10.29-1.74,19.3-2.59,28.64c11.12,3.76,21.87,7.4,33.77,11.43c-3.77,2.82-6.62,4.95-9.76,7.3
		c-8.16-2.56-16.35-5.12-25.15-7.88c-0.45,3.88-0.85,7.42-1.29,11.21c2.33,3.27,4.72,6.63,7.41,10.41c-2.68,2.01-5.14,3.84-8.15,6.1
		c-10.07-13.73-19.86-27.08-30-40.9C231.35,144.96,233.76,143.08,236.76,140.74z"/>
	<path d="M742.34,75.06c3.35,1.5,6.34,2.84,9.32,4.17c0,18.38,0,36.42,0,55.27c-3.59-1.48-6.56-2.7-9.76-4.01c0-3.92,0-7.54,0-11.55
		c-7.44-3.24-14.71-6.41-22.13-9.64c-2.79,2.58-5.46,5.05-8.46,7.83c-2.93-1.27-5.89-2.55-9.69-4.2
		C715.45,100.06,728.66,87.78,742.34,75.06z M726.66,102.54c5.38,2.31,10,4.29,15.05,6.46c0-7.17,0-13.5,0-20.85
		C736.48,93.15,731.97,97.46,726.66,102.54z"/>
	<path d="M174.52,198c2.42-2.56,4.67-4.94,7.21-7.63c17.18,6.25,34.24,12.46,52.04,18.93c-2.83,3.05-5.05,5.44-7.38,7.95
		c-3.65-1.28-7.08-2.48-11.01-3.85c-5.35,5.67-10.79,11.43-16.42,17.41c1.46,3.46,2.87,6.79,4.45,10.52
		c-2.18,2.38-4.36,4.78-7.19,7.88C188.8,231.72,181.71,214.99,174.52,198z M195,222.07c4.1-4.42,7.51-8.09,11.37-12.24
		c-6.83-2.56-12.72-4.76-18.61-6.96c-0.23,0.39-0.46,0.78-0.69,1.17C189.58,209.75,192.09,215.47,195,222.07z"/>
	<path d="M810.62,920.22c2.96-2.15,5.61-4.07,8.5-6.17c15.81,9.21,31.39,18.29,47.74,27.81c-3.21,2.48-5.76,4.45-8.5,6.57
		c-3.33-1.86-6.49-3.63-10.17-5.69c-6.28,4.61-12.67,9.28-19.22,14.08c0.8,3.79,1.54,7.32,2.38,11.31c-2.57,1.92-5.15,3.84-8.46,6.3
		C818.72,956.01,814.74,938.41,810.62,920.22z M839.95,937.62c-6.2-3.73-11.68-7.02-17.16-10.32c-0.31,0.22-0.62,0.44-0.94,0.67
		c1.52,6.27,3.03,12.54,4.71,19.48C831.3,943.97,835.27,941.05,839.95,937.62z"/>
	<path d="M340.99,78.92c3.04-1.35,5.91-2.61,9.29-4.1c13.28,12.48,26.56,24.96,40.4,37.96c-3.73,1.67-6.71,3-9.94,4.44
		c-2.79-2.6-5.45-5.08-8.46-7.89c-7.21,3.11-14.48,6.24-22,9.48c0,3.85,0,7.47,0,11.46c-3.02,1.32-5.84,2.56-9.29,4.07
		C340.99,115.61,340.99,97.57,340.99,78.92z M350.42,88.21c0,7.43,0,13.8,0,20.78c5.16-2.24,9.72-4.21,13.48-5.85
		C359.4,98.15,355.21,93.5,350.42,88.21z"/>
	<path d="M1022.09,383.36c-3.35-0.21-6.09-0.38-8.95-0.56c-1-7.78,1.8-16.35-6.01-21.33c-4.35,0.41-5.13,3.08-5.16,6.09
		c-0.05,4.49,0.28,8.99,0.14,13.48c-0.26,8.36-4.11,13.14-11.64,14.54c-5.87,1.09-10.52-1.41-13.92-5.91
		c-6.94-9.18-8.2-19.34-4.28-30.85c2.89,0.32,5.74,0.63,8.6,0.94c-0.31,4.77-0.91,9.04-0.75,13.28c0.1,2.73,0.78,5.76,2.22,8
		c1.13,1.75,3.81,3.45,5.82,3.47c2.92,0.03,3.72-2.93,3.74-5.57c0.04-4.99-0.27-9.99-0.09-14.98c0.33-8.68,6.37-14.29,14.69-13
		c3.18,0.49,6.76,2.39,8.91,4.78C1022.3,363.37,1024.09,372.61,1022.09,383.36z"/>
	<path d="M169.32,818.04c-3.27,0.51-5.99,0.93-9.24,1.44c-0.47-2.27-0.6-4.25-1.31-6.01c-1.58-3.95-3.19-7.94-5.36-11.58
		c-0.65-1.09-3.46-1.8-4.76-1.31c-1.22,0.46-2.44,2.75-2.43,4.23c0.01,2.94,0.84,5.88,1.38,8.81c0.56,3.1,1.34,6.17,1.73,9.29
		c0.74,5.95-1.71,10.38-6.99,13.17c-5.25,2.77-10.46,2.21-15.04-1.25c-9.75-7.37-13.07-17.51-12.18-29.99
		c3.13-0.41,5.98-0.79,9.06-1.19c0.35,3.8,0.08,7.24,1.08,10.26c1.31,3.99,3.32,7.85,5.67,11.34c0.76,1.14,3.87,1.73,5.27,1.11
		c1.33-0.58,2.52-3.05,2.54-4.71c0.03-2.75-0.88-5.53-1.48-8.28c-0.56-2.6-1.37-5.15-1.83-7.77c-1.11-6.34,0.92-11.18,5.95-14.16
		c5.3-3.15,10.63-2.74,15.45,0.84C165.13,798.44,168.64,807.13,169.32,818.04z"/>
	<path d="M122.51,372.93c-15.77-7.16-30.85-14.01-46.71-21.2c4.24-8.51,7.67-16.84,12.36-24.4c4.93-7.95,12.99-9.49,21.45-5.45
		c8.58,4.1,12.34,11.57,9.76,20.5c-1.46,5.07-3.71,9.91-5.7,15.12c4.27,2.03,8.42,4,12.94,6.15
		C125.22,366.79,124.04,369.47,122.51,372.93z M88.48,346.19c5.93,2.68,11,4.97,16.47,7.44c1.15-2.52,2.15-4.57,3.03-6.67
		c0.77-1.83,1.52-3.68,2.07-5.58c1.39-4.84-0.37-8.7-4.73-10.62c-4.15-1.83-8.2-0.77-10.75,3.4
		C92.36,337.78,90.7,341.75,88.48,346.19z"/>
	<path d="M738.22,963.03c8.24-4.08,15.62-8.28,23.42-11.44c8.95-3.62,16.68-0.42,21.16,7.72c4.77,8.67,3.29,17.21-4.54,23.06
		c-4.21,3.14-9.01,5.49-13.71,8.29c2.14,4.31,4.18,8.44,6.38,12.87c-2.95,1.6-5.54,3.02-8.84,4.81
		C754.19,993.37,746.42,978.61,738.22,963.03z M760.11,982.46c4.3-2.51,8.3-4.47,11.88-7.02c3.76-2.67,4.48-6.63,2.61-10.55
		c-1.88-3.94-5.47-5.98-9.88-4.54c-4.44,1.45-8.57,3.83-13.15,5.96C754.61,972.06,757.21,976.97,760.11,982.46z"/>
	<path d="M952.24,766.56c1.72,2.49,3.3,4.78,5.05,7.32c-5.52,5.14-13.36,8.44-13.15,17.44c2.99,4.03,6.01,2.47,8.78,0.39
		c4.25-3.19,8.16-6.85,12.52-9.87c4.75-3.3,9.8-2.83,14.47,0.43c4.82,3.37,7.27,8.36,5.78,13.87c-1.39,5.15-3.94,10.22-7,14.62
		c-3.33,4.8-8.39,7.91-14.63,9.74c-1.64-2.54-3.21-4.96-4.75-7.34c3.9-2.56,7.7-4.42,10.66-7.19c2.44-2.28,4.27-5.47,5.59-8.59
		c0.58-1.37-0.28-4.26-1.47-5.19c-1.18-0.92-3.88-0.83-5.42-0.11c-2.34,1.1-4.26,3.1-6.35,4.74c-2.74,2.15-5.33,4.52-8.23,6.44
		c-4.67,3.09-9.49,2.73-14.02-0.42c-4.67-3.26-6.48-7.88-5.67-13.47C935.78,779.99,942.62,771.08,952.24,766.56z"/>
	<path d="M462.48,1006.68c-2.38,1.88-4.55,3.61-6.67,5.28c-10.68-9.59-19.18-11.31-26.92-5.65c-6.27,4.58-8.43,12.93-5.19,20.09
		c3.61,7.99,11.52,11.15,22.56,8.68c1.06-4,2.19-8.27,3.45-13.01c2.96,0.68,5.6,1.28,8.45,1.93c-0.41,2.18-0.65,3.8-1.02,5.39
		c-1.01,4.36-2.08,8.72-3.07,12.85c-10.89,6.07-30.64,4.26-38.93-10.2c-6.88-12.02-2.95-27.42,8.86-34.5
		C436.36,990.12,454.23,994.12,462.48,1006.68z"/>
	<path d="M522.9,1028.35c-4.91-13.36-4.23-18.03,2.87-21.51c7.03-3.44,16.02-1.23,19.43,4.78c3.4,6,0.8,10.87-10.43,18.84
		c2.78,3.01,5.49,5.96,8.57,9.3c1.63-2.94,2.96-5.34,4.55-8.21c2.19,1.68,4.1,3.14,6.25,4.79c-1.67,3.23-3.18,6.15-4.82,9.32
		c2.29,2.45,4.64,4.98,7.57,8.12c-1.95,1.39-3.67,2.62-5.84,4.16c-2.04-1.91-4.52-4.23-7.09-6.64c-5.72,4.04-11.59,6.82-18.7,5.18
		c-6.41-1.48-10.97-5.05-12.23-11.6c-1.2-6.23,1.73-10.93,6.81-14.41C520.79,1029.81,521.74,1029.15,522.9,1028.35z M527.41,1033.87
		c-3.7,2.09-6.95,4.46-5.9,8.63c0.59,2.33,2.9,5.14,5.1,5.96c4.15,1.56,8.38,0.62,11.57-3.4c-3.1-3.37-6.01-6.55-8.95-9.7
		C528.78,1034.88,528.22,1034.52,527.41,1033.87z M530.27,1025.25c2.62-1.96,5.08-2.98,6.1-4.81c1.04-1.86,1.67-5.26,0.65-6.62
		c-1.03-1.38-4.46-1.81-6.54-1.34c-2.65,0.61-3.67,3.23-2.85,6C528.23,1020.5,529.15,1022.42,530.27,1025.25z"/>
	<path d="M39.7,546.1c-0.04-10.51,8.14-18.69,18.61-18.61c10.17,0.08,18.41,8.27,18.5,18.39c0.09,10.27-8.39,18.66-18.79,18.58
		C47.73,564.41,39.74,556.39,39.7,546.1z"/>
	<path d="M1034.2,564.48c-10.29,0.02-18.4-7.96-18.5-18.2c-0.1-10.55,7.97-18.77,18.44-18.78c10.39-0.01,18.86,8.48,18.68,18.71
		C1052.64,556.38,1044.39,564.46,1034.2,564.48z"/>
	<path d="M517.86,35.87c0.39,3.21,0.71,5.79,1.1,8.96c-5.28,0.64-10.15,1.23-15.54,1.88c1.27,13.67,2.53,27.17,3.83,41.18
		c-3.4,0.47-6.43,0.89-10.14,1.4c-1.42-14.02-2.78-27.52-4.19-41.46c-5.18,0.32-9.93,0.62-15.41,0.96c-0.29-2.85-0.56-5.53-0.9-8.89
		C490.44,38.55,503.79,37.25,517.86,35.87z"/>
	<path d="M838.14,127.87c-1.75,2.71-3.16,4.89-4.87,7.53c-4.41-2.71-8.59-5.29-13.27-8.17c-7.45,11.46-14.83,22.83-22.6,34.79
		c-2.95-1.84-5.66-3.53-8.73-5.45c7.62-11.81,14.98-23.22,22.57-34.99c-4.38-2.96-8.45-5.71-12.9-8.73
		c1.74-2.64,3.24-4.92,4.98-7.55C815.07,112.93,826.44,120.29,838.14,127.87z"/>
	<path d="M429.99,91.74c7.27-1.72,13.84-3.27,20.91-4.94c0.78,2.99,1.47,5.64,2.32,8.91c-10.29,2.54-20.21,4.99-31.01,7.66
		c-4.04-16.44-8.01-32.6-12.14-49.42c3.34-0.87,6.29-1.64,9.88-2.59C423.33,64.97,426.6,78.1,429.99,91.74z"/>
	<path d="M877.69,159.35c-11.18,13.15-21.93,25.8-32.97,38.78c-2.7-2.23-5.07-4.2-7.9-6.54c11-12.95,21.74-25.58,32.88-38.7
		C872.32,155,874.69,156.92,877.69,159.35z"/>
	<path d="M296.58,991.95c-3.16-1.81-5.72-3.27-8.91-5.09c8.47-14.73,16.79-29.18,25.38-44.1c3.04,1.75,5.67,3.28,8.87,5.13
		C313.44,962.63,305.19,976.98,296.58,991.95z"/>
	<path d="M898.33,912.35c-2.51,2.59-4.56,4.71-7.14,7.38c-11.72-12.25-23.25-24.29-34.9-36.47c2.43-2.71,4.48-5,6.86-7.65
		C875.19,888.17,886.65,900.14,898.33,912.35z"/>
	<path d="M487.39,241.77c9.53,0,17.67-0.48,25.74,0.08c34.97,2.43,64.7,33.72,65.74,68.91c0.11,3.65,0.13,7.36-0.31,10.97
		c-0.82,6.66-5.08,10.36-11.82,10.44c-9.66,0.11-19.32,0.04-28.98,0.04c-80.78,0-161.56,0.01-242.33-0.01
		c-9.71,0-13.97-4.53-13.54-14.23c1.25-27.98,21.18-53.13,48.16-60.29c6.23-1.65,12.74-2.23,19.87-3.42
		c15.39-23.33,37.42-37.61,66.14-40.04C444.59,211.81,468.58,222.08,487.39,241.77z M555.98,309.46c-0.27-2.04-0.39-3.68-0.71-5.27
		c-5.63-28.75-35.41-47.03-63.42-38.31c-8.2,2.55-13.27,0.7-18.59-5.72c-29.15-35.19-83.44-30.69-105.62,8.76
		c-3.9,6.95-8.58,9.9-16.44,9.01c-10.32-1.16-19.85,1.56-28.32,7.59c-8.24,5.86-13.85,13.6-16.9,23.93
		C389.44,309.46,472.3,309.46,555.98,309.46z"/>
	<path d="M728.72,250.87c32.25,0.06,58.46,26.36,58.36,58.56c-0.09,32.15-26.49,58.45-58.65,58.43
		c-31.96-0.02-58.48-26.67-58.43-58.71C670.05,277.05,696.5,250.81,728.72,250.87z M728.69,273.3
		c-19.77-0.04-36.09,16.03-36.28,35.72c-0.19,19.86,16.21,36.22,36.26,36.18c19.94-0.04,35.93-16.06,35.85-35.91
		C764.45,289.3,748.56,273.34,728.69,273.3z"/>
	<path d="M682.18,250.82c-0.25,5.47-2.18,8.78-6.06,10.8c-4.09,2.13-8.32,1.95-11.72-1.02c-4.37-3.82-8.54-7.96-12.24-12.43
		c-3.49-4.21-2.86-9.79,0.72-13.73c3.61-3.97,9.42-5.37,13.55-2.12c5.06,3.98,9.52,8.77,13.89,13.53
		C681.65,247.28,681.82,249.77,682.18,250.82z"/>
	<path d="M786.75,355.7c0.74,0.18,2.19,0.19,3.27,0.83c6.81,4.04,12.48,9.38,16.25,16.34c2.17,4,0.52,9.24-2.9,12.21
		c-3.66,3.18-9.5,3.96-13.38,0.76c-4.71-3.88-9.07-8.31-13-12.99c-2.91-3.46-2.64-7.77-0.35-11.71
		C778.74,357.53,782.05,355.89,786.75,355.7z"/>
	<path d="M682.19,367.81c-0.43,1.15-0.72,3.74-2.14,5.33c-3.96,4.46-8.11,8.85-12.72,12.62c-4.18,3.42-10.53,2.48-14.14-1.22
		c-3.81-3.91-4.61-9.76-1.05-14.12c3.65-4.48,7.85-8.6,12.23-12.4c3.4-2.95,7.65-3.09,11.73-1.01
		C679.99,358.99,681.94,362.29,682.19,367.81z"/>
	<path d="M786.66,263.04c-4.8-0.41-8.23-2.14-10.27-6.05c-2.11-4.06-2.08-8.34,0.86-11.73c3.9-4.51,8.19-8.76,12.8-12.54
		c4.03-3.3,9.43-2.59,13.31,0.81c3.76,3.3,5.52,9.14,2.46,13.06c-4.34,5.56-9.77,10.3-14.95,15.16
		C789.81,262.75,787.78,262.72,786.66,263.04z"/>
	<path d="M650.71,298.08c2.16,0,4.33-0.15,6.48,0.03c5.9,0.48,10.28,4.96,10.59,10.67c0.29,5.43-3.47,10.69-9.14,11.35
		c-5.4,0.62-10.98,0.62-16.37-0.01c-5.65-0.66-9.38-5.89-9.14-11.35c0.24-5.54,4.8-10.19,10.62-10.66
		C646.05,297.93,648.39,298.08,650.71,298.08z"/>
	<path d="M739.71,387.69c0,2.16,0.17,4.33-0.03,6.46c-0.56,5.84-4.74,9.99-10.23,10.37c-5.76,0.4-11.11-3.27-11.8-9.11
		c-0.63-5.38-0.6-10.96,0.06-16.34c0.67-5.53,6.17-9.37,11.46-9.03c5.54,0.35,9.88,4.46,10.47,10.19c0.26,2.46,0.04,4.97,0.04,7.46
		C739.68,387.69,739.69,387.69,739.71,387.69z"/>
	<path d="M739.73,231.23c0,2.16,0.15,4.32-0.02,6.47c-0.52,6.41-4.86,10.56-10.93,10.63c-6.12,0.08-10.79-3.84-11.36-10.2
		c-0.41-4.6-0.42-9.31-0.01-13.91c0.56-6.21,5.5-10.36,11.42-10.24c5.92,0.12,10.34,4.44,10.87,10.79
		C739.88,226.91,739.73,229.08,739.73,231.23z"/>
	<path d="M806.56,298.09c2.32,0,4.66-0.17,6.96,0.03c5.76,0.5,10.28,5.21,10.49,10.76c0.21,5.39-3.64,10.62-9.25,11.27
		c-5.23,0.6-10.62,0.62-15.86,0.07c-5.99-0.63-9.56-5.57-9.31-11.55c0.24-5.77,4.52-10.14,10.51-10.58
		c2.14-0.16,4.31-0.03,6.47-0.03C806.56,298.08,806.56,298.08,806.56,298.09z"/>
	<path d="M581.62,604.13c0.04-20.26,15.95-36.12,36.12-36.01c20.14,0.11,36.12,16.28,35.93,36.36
		c-0.2,20.46-15.77,35.82-36.28,35.78C596.89,640.23,581.58,624.76,581.62,604.13z M617.53,583.23c-11.51,0-21.07,9.4-21.23,20.87
		c-0.16,11.54,9.65,21.46,21.24,21.47c11.44,0,21.02-9.47,21.19-20.97C638.9,592.93,629.28,583.23,617.53,583.23z"/>
	<path d="M467.53,611.96c-11.31,0-22.61,0.09-33.91-0.07c-2.23-0.03-5.18-0.26-6.49-1.65c-1.7-1.8-3.08-4.98-2.76-7.31
		c0.29-2.09,2.95-3.96,4.8-5.68c0.59-0.55,1.91-0.42,2.89-0.42c23.44-0.02,46.88-0.07,70.33,0.02c5.9,0.02,9,3.99,7.83,9.46
		c-0.79,3.67-3.39,5.58-8.27,5.62C490.47,612.01,479,611.95,467.53,611.96z"/>
	<path d="M453.07,583.2c-6.83,0-13.66,0.06-20.49-0.02c-5.45-0.07-8.65-2.95-8.62-7.54c0.03-4.61,3.13-7.46,8.69-7.5
		c13.49-0.1,26.97-0.1,40.46-0.01c5.82,0.04,9.04,3.04,8.87,7.83c-0.16,4.55-3.33,7.18-8.93,7.24
		C466.39,583.25,459.73,583.2,453.07,583.2z"/>
	<path d="M617.61,733.27c-4.55,0.03-7.64-2.95-7.61-7.35c0.03-4.4,3.14-7.31,7.72-7.23c4.34,0.07,7.26,2.88,7.36,7.09
		C625.19,730.17,622.13,733.24,617.61,733.27z"/>
	<path d="M645.6,733.26c-4.42-0.25-7.14-3.47-6.78-8c0.35-4.39,3.54-6.94,8.2-6.56c4.24,0.35,6.73,3.3,6.52,7.73
		C653.32,730.89,650.26,733.53,645.6,733.26z"/>
	<path d="M287.91,740.57c0.11-6.12,5.23-11.03,11.35-10.86c6.1,0.17,11.1,5.39,10.9,11.39c-0.2,6.11-5.4,11.05-11.44,10.89
		C292.63,751.83,287.8,746.73,287.91,740.57z"/>
	<path d="M625.08,604.22c0.06,4.29-3.12,7.58-7.4,7.66c-4.29,0.08-7.61-3.11-7.68-7.38c-0.07-4.27,3.12-7.57,7.41-7.64
		C621.69,596.78,625.02,599.98,625.08,604.22z"/>
</g>
</svg>
